<svg xmlns="http://www.w3.org/2000/svg" viewBox="79 68 922 236">
  <polygon fill="#AB1930" points="903.6 134.65 941.09 78.2 985.97 78.2 948.48 134.65 903.6 134.65"/>
  <rect fill="#FFFFFF" x="660.23" y="78.2" width="44.88" height="215.67"/>
  <polygon fill="#FFFFFF" points="542.86 115.16 542.86 78.18 405.26 78.18 405.26 78.2 394.59 78.2 394.59 293.87 439.47 293.87 439.47 293.86 542.86 293.86 542.86 256.88 439.47 256.88 439.47 202.62 529.47 202.62 529.47 165.64 439.47 165.64 439.47 115.16 542.86 115.16"/>
  <polygon fill="#FFFFFF" points="277.26 293.08 277.26 78.2 235.28 78.2 235.28 230 134.24 78.2 89.36 78.2 89.38 78.23 89.3 78.2 89.3 293.98 131.28 293.98 131.28 141.19 232.91 293.87 277.79 293.87 277.26 293.08"/>
  <polygon fill="#FFFFFF" points="989.85 293.87 846.31 78.2 801.42 78.2 869.57 180.59 794.17 293.87 839.05 293.87 892.01 214.31 944.97 293.87 989.85 293.87"/>
</svg>
